<mxfile host="app.diagrams.net" modified="2022-08-30T03:12:48.159Z" agent="5.0 (X11; Linux loongarch64) AppleWebKit/537.36 (KHTML, like Gecko) Chrome/90.0.4430.217 Safari/537.36" etag="J_kxdrCRERD3G0gLJteK" version="20.2.6" type="github">
  <diagram id="aV5w22nhNH_Wzgc8BO7l" name="Page-1">
    <mxGraphModel dx="2729" dy="936" grid="0" gridSize="10" guides="1" tooltips="1" connect="1" arrows="1" fold="1" page="1" pageScale="1" pageWidth="827" pageHeight="1169" math="0" shadow="0">
      <root>
        <mxCell id="0" />
        <mxCell id="1" parent="0" />
        <mxCell id="tzlG480XD32pi5aD75Bq-49" value="" style="rounded=1;whiteSpace=wrap;html=1;strokeColor=#FF0080;dashed=1;dashPattern=1 2;strokeWidth=3;" vertex="1" parent="1">
          <mxGeometry x="71" y="4542" width="947" height="394" as="geometry" />
        </mxCell>
        <mxCell id="tzlG480XD32pi5aD75Bq-48" value="" style="rounded=1;whiteSpace=wrap;html=1;strokeColor=#CC6600;dashed=1;dashPattern=1 2;strokeWidth=3;" vertex="1" parent="1">
          <mxGeometry x="68" y="4339" width="953" height="152" as="geometry" />
        </mxCell>
        <mxCell id="MgCIcN8HCtVji7_G_k5s-110" value="" style="rounded=1;whiteSpace=wrap;html=1;strokeColor=#314354;fillColor=#647687;fontColor=#ffffff;" parent="1" vertex="1">
          <mxGeometry x="125" y="360" width="660" height="470" as="geometry" />
        </mxCell>
        <mxCell id="MgCIcN8HCtVji7_G_k5s-99" value="lmg package" style="rounded=1;whiteSpace=wrap;html=1;strokeColor=#003366;fillColor=#009999;" parent="1" vertex="1">
          <mxGeometry x="405" y="2133.75" width="390" height="210" as="geometry" />
        </mxCell>
        <mxCell id="MgCIcN8HCtVji7_G_k5s-52" value="" style="rounded=1;whiteSpace=wrap;html=1;strokeColor=#3A5431;fillColor=#9AC7BF;fontColor=#ffffff;" parent="1" vertex="1">
          <mxGeometry x="200" y="410" width="510" height="220" as="geometry" />
        </mxCell>
        <mxCell id="MgCIcN8HCtVji7_G_k5s-2" value="Cpu，mem，disk" style="rounded=1;whiteSpace=wrap;html=1;fillColor=#004C99;strokeColor=#003366;fontColor=#ffffff;" parent="1" vertex="1">
          <mxGeometry x="200" y="690" width="510" height="80" as="geometry" />
        </mxCell>
        <mxCell id="MgCIcN8HCtVji7_G_k5s-3" value="System os" style="rounded=1;whiteSpace=wrap;html=1;fillColor=#1F5C66;strokeColor=#005700;fontColor=#ffffff;" parent="1" vertex="1">
          <mxGeometry x="198.5" y="630" width="510" height="60" as="geometry" />
        </mxCell>
        <mxCell id="MgCIcN8HCtVji7_G_k5s-7" value="loongker（loongson container）" style="rounded=1;whiteSpace=wrap;html=1;fillColor=#009999;strokeColor=#3A5431;fontColor=#ffffff;" parent="1" vertex="1">
          <mxGeometry x="1220" y="160" width="221" height="60" as="geometry" />
        </mxCell>
        <mxCell id="MgCIcN8HCtVji7_G_k5s-45" value="lmg" style="rounded=1;whiteSpace=wrap;html=1;strokeColor=#003366;fillColor=#009999;" parent="1" vertex="1">
          <mxGeometry x="150" y="30" width="120" height="60" as="geometry" />
        </mxCell>
        <mxCell id="MgCIcN8HCtVji7_G_k5s-46" value="app" style="rounded=1;whiteSpace=wrap;html=1;strokeColor=#003366;fillColor=#009999;" parent="1" vertex="1">
          <mxGeometry x="430" y="120" width="120" height="60" as="geometry" />
        </mxCell>
        <mxCell id="MgCIcN8HCtVji7_G_k5s-47" value="app" style="rounded=1;whiteSpace=wrap;html=1;strokeColor=#003366;fillColor=#009999;" parent="1" vertex="1">
          <mxGeometry x="650" y="80" width="120" height="60" as="geometry" />
        </mxCell>
        <mxCell id="MgCIcN8HCtVji7_G_k5s-53" value="lmg" style="rounded=1;whiteSpace=wrap;html=1;strokeColor=#003366;fillColor=#009999;" parent="1" vertex="1">
          <mxGeometry x="950" y="120" width="120" height="60" as="geometry" />
        </mxCell>
        <mxCell id="MgCIcN8HCtVji7_G_k5s-55" value="lmg" style="rounded=1;whiteSpace=wrap;html=1;strokeColor=#003366;fillColor=#009999;" parent="1" vertex="1">
          <mxGeometry y="130" width="120" height="60" as="geometry" />
        </mxCell>
        <mxCell id="MgCIcN8HCtVji7_G_k5s-56" value="lmg package" style="rounded=1;whiteSpace=wrap;html=1;strokeColor=#003366;fillColor=#009999;" parent="1" vertex="1">
          <mxGeometry x="690" y="1355" width="120" height="60" as="geometry" />
        </mxCell>
        <mxCell id="MgCIcN8HCtVji7_G_k5s-57" value="lmgbuild" style="rounded=1;whiteSpace=wrap;html=1;strokeColor=#003366;fillColor=#009999;" parent="1" vertex="1">
          <mxGeometry x="390" y="1240" width="154" height="290" as="geometry" />
        </mxCell>
        <mxCell id="MgCIcN8HCtVji7_G_k5s-58" value="lmgrun" style="rounded=1;whiteSpace=wrap;html=1;strokeColor=#003366;fillColor=#009999;" parent="1" vertex="1">
          <mxGeometry x="1250" y="1220" width="130" height="317.5" as="geometry" />
        </mxCell>
        <mxCell id="MgCIcN8HCtVji7_G_k5s-59" value="lpkg" style="rounded=1;whiteSpace=wrap;html=1;strokeColor=#003366;fillColor=#009999;" parent="1" vertex="1">
          <mxGeometry x="950" y="1220" width="140" height="320" as="geometry" />
        </mxCell>
        <mxCell id="MgCIcN8HCtVji7_G_k5s-60" value="deb package" style="rounded=1;whiteSpace=wrap;html=1;strokeColor=#003366;fillColor=#009999;" parent="1" vertex="1">
          <mxGeometry x="100" y="1250" width="120" height="60" as="geometry" />
        </mxCell>
        <mxCell id="MgCIcN8HCtVji7_G_k5s-61" value="rpm package" style="rounded=1;whiteSpace=wrap;html=1;strokeColor=#003366;fillColor=#009999;" parent="1" vertex="1">
          <mxGeometry x="100" y="1360" width="120" height="60" as="geometry" />
        </mxCell>
        <mxCell id="MgCIcN8HCtVji7_G_k5s-62" value="tar package" style="rounded=1;whiteSpace=wrap;html=1;strokeColor=#003366;fillColor=#009999;" parent="1" vertex="1">
          <mxGeometry x="100" y="1470" width="120" height="60" as="geometry" />
        </mxCell>
        <mxCell id="MgCIcN8HCtVji7_G_k5s-64" value="" style="shape=flexArrow;endArrow=classic;html=1;rounded=1;curved=1;" parent="1" edge="1">
          <mxGeometry width="50" height="50" relative="1" as="geometry">
            <mxPoint x="236" y="1499.5" as="sourcePoint" />
            <mxPoint x="370" y="1500" as="targetPoint" />
          </mxGeometry>
        </mxCell>
        <mxCell id="MgCIcN8HCtVji7_G_k5s-65" value="" style="shape=flexArrow;endArrow=classic;html=1;rounded=1;curved=1;" parent="1" edge="1">
          <mxGeometry width="50" height="50" relative="1" as="geometry">
            <mxPoint x="236" y="1279.5" as="sourcePoint" />
            <mxPoint x="370" y="1280" as="targetPoint" />
          </mxGeometry>
        </mxCell>
        <mxCell id="MgCIcN8HCtVji7_G_k5s-66" value="" style="shape=flexArrow;endArrow=classic;html=1;rounded=1;curved=1;" parent="1" edge="1">
          <mxGeometry width="50" height="50" relative="1" as="geometry">
            <mxPoint x="236" y="1389.5" as="sourcePoint" />
            <mxPoint x="370" y="1390" as="targetPoint" />
          </mxGeometry>
        </mxCell>
        <mxCell id="MgCIcN8HCtVji7_G_k5s-67" value="" style="shape=flexArrow;endArrow=classic;html=1;rounded=1;fontColor=#5C5C5C;curved=1;" parent="1" edge="1">
          <mxGeometry width="50" height="50" relative="1" as="geometry">
            <mxPoint x="570" y="1389.5" as="sourcePoint" />
            <mxPoint x="680" y="1389.5" as="targetPoint" />
          </mxGeometry>
        </mxCell>
        <mxCell id="MgCIcN8HCtVji7_G_k5s-69" value="" style="shape=flexArrow;endArrow=classic;html=1;rounded=1;fontColor=#5C5C5C;curved=1;" parent="1" edge="1">
          <mxGeometry width="50" height="50" relative="1" as="geometry">
            <mxPoint x="827" y="1389.5" as="sourcePoint" />
            <mxPoint x="937" y="1389.5" as="targetPoint" />
          </mxGeometry>
        </mxCell>
        <mxCell id="MgCIcN8HCtVji7_G_k5s-70" value="" style="shape=flexArrow;endArrow=classic;html=1;rounded=1;fontColor=#5C5C5C;curved=1;" parent="1" edge="1">
          <mxGeometry width="50" height="50" relative="1" as="geometry">
            <mxPoint x="1120" y="1389.5" as="sourcePoint" />
            <mxPoint x="1230" y="1389.5" as="targetPoint" />
          </mxGeometry>
        </mxCell>
        <mxCell id="MgCIcN8HCtVji7_G_k5s-71" value="loongker" style="rounded=1;whiteSpace=wrap;html=1;strokeColor=#003366;fillColor=#D5E8D4;" parent="1" vertex="1">
          <mxGeometry x="390" y="430" width="130" height="75" as="geometry" />
        </mxCell>
        <mxCell id="MgCIcN8HCtVji7_G_k5s-73" value="lpkg" style="rounded=1;whiteSpace=wrap;html=1;strokeColor=#003366;fillColor=#009999;" parent="1" vertex="1">
          <mxGeometry x="100" y="1680" width="140" height="320" as="geometry" />
        </mxCell>
        <mxCell id="MgCIcN8HCtVji7_G_k5s-75" value="" style="shape=flexArrow;endArrow=classic;html=1;rounded=1;curved=1;" parent="1" edge="1">
          <mxGeometry width="50" height="50" relative="1" as="geometry">
            <mxPoint x="261" y="1949.5" as="sourcePoint" />
            <mxPoint x="395" y="1950" as="targetPoint" />
          </mxGeometry>
        </mxCell>
        <mxCell id="MgCIcN8HCtVji7_G_k5s-76" value="" style="shape=flexArrow;endArrow=classic;html=1;rounded=1;curved=1;" parent="1" edge="1">
          <mxGeometry width="50" height="50" relative="1" as="geometry">
            <mxPoint x="261" y="1729.5" as="sourcePoint" />
            <mxPoint x="395" y="1730" as="targetPoint" />
          </mxGeometry>
        </mxCell>
        <mxCell id="MgCIcN8HCtVji7_G_k5s-77" value="" style="shape=flexArrow;endArrow=classic;html=1;rounded=1;curved=1;" parent="1" edge="1">
          <mxGeometry width="50" height="50" relative="1" as="geometry">
            <mxPoint x="261" y="1839.5" as="sourcePoint" />
            <mxPoint x="395" y="1840" as="targetPoint" />
          </mxGeometry>
        </mxCell>
        <mxCell id="MgCIcN8HCtVji7_G_k5s-78" value="安装" style="text;html=1;align=center;verticalAlign=middle;resizable=0;points=[];autosize=1;strokeColor=none;fillColor=none;fontColor=#5C5C5C;rounded=1;" parent="1" vertex="1">
          <mxGeometry x="290" y="1700" width="40" height="20" as="geometry" />
        </mxCell>
        <mxCell id="MgCIcN8HCtVji7_G_k5s-79" value="卸载" style="text;html=1;align=center;verticalAlign=middle;resizable=0;points=[];autosize=1;strokeColor=none;fillColor=none;fontColor=#5C5C5C;rounded=1;" parent="1" vertex="1">
          <mxGeometry x="290" y="1810" width="40" height="20" as="geometry" />
        </mxCell>
        <mxCell id="MgCIcN8HCtVji7_G_k5s-80" value="升级" style="text;html=1;align=center;verticalAlign=middle;resizable=0;points=[];autosize=1;strokeColor=none;fillColor=none;fontColor=#5C5C5C;rounded=1;" parent="1" vertex="1">
          <mxGeometry x="290" y="1920" width="40" height="20" as="geometry" />
        </mxCell>
        <mxCell id="MgCIcN8HCtVji7_G_k5s-82" value="lmgrun" style="rounded=1;whiteSpace=wrap;html=1;strokeColor=#003366;fillColor=#009999;" parent="1" vertex="1">
          <mxGeometry x="100" y="2080" width="130" height="317.5" as="geometry" />
        </mxCell>
        <mxCell id="MgCIcN8HCtVji7_G_k5s-84" value="" style="shape=flexArrow;endArrow=classic;html=1;rounded=1;curved=1;" parent="1" edge="1">
          <mxGeometry width="50" height="50" relative="1" as="geometry">
            <mxPoint x="256" y="2238.25" as="sourcePoint" />
            <mxPoint x="390" y="2238.75" as="targetPoint" />
          </mxGeometry>
        </mxCell>
        <mxCell id="MgCIcN8HCtVji7_G_k5s-85" value="lmg package" style="rounded=1;whiteSpace=wrap;html=1;strokeColor=#003366;fillColor=#009999;" parent="1" vertex="1">
          <mxGeometry x="445" y="1740" width="390" height="210" as="geometry" />
        </mxCell>
        <mxCell id="MgCIcN8HCtVji7_G_k5s-86" value="普通文件" style="rounded=1;whiteSpace=wrap;html=1;fontColor=#5C5C5C;strokeColor=#006658;fillColor=#21C0A5;" parent="1" vertex="1">
          <mxGeometry x="475" y="1875" width="330" height="60" as="geometry" />
        </mxCell>
        <mxCell id="MgCIcN8HCtVji7_G_k5s-87" value="镜像文件" style="rounded=1;whiteSpace=wrap;html=1;fontColor=#5C5C5C;strokeColor=#006658;fillColor=#21C0A5;" parent="1" vertex="1">
          <mxGeometry x="475" y="1755" width="320" height="70" as="geometry" />
        </mxCell>
        <mxCell id="MgCIcN8HCtVji7_G_k5s-89" value="" style="endArrow=classic;html=1;rounded=1;fontColor=#5C5C5C;strokeColor=#006658;fillColor=#21C0A5;curved=1;" parent="1" source="MgCIcN8HCtVji7_G_k5s-87" edge="1">
          <mxGeometry width="50" height="50" relative="1" as="geometry">
            <mxPoint x="1010" y="1810" as="sourcePoint" />
            <mxPoint x="1050" y="1680" as="targetPoint" />
          </mxGeometry>
        </mxCell>
        <mxCell id="MgCIcN8HCtVji7_G_k5s-90" value="" style="endArrow=classic;html=1;rounded=1;fontColor=#5C5C5C;strokeColor=#006658;fillColor=#21C0A5;curved=1;entryX=0;entryY=0.5;entryDx=0;entryDy=0;" parent="1" source="MgCIcN8HCtVji7_G_k5s-86" target="MgCIcN8HCtVji7_G_k5s-91" edge="1">
          <mxGeometry width="50" height="50" relative="1" as="geometry">
            <mxPoint x="1020" y="1960" as="sourcePoint" />
            <mxPoint x="1000" y="2060" as="targetPoint" />
          </mxGeometry>
        </mxCell>
        <mxCell id="MgCIcN8HCtVji7_G_k5s-91" value="os" style="rounded=1;whiteSpace=wrap;html=1;fontColor=#5C5C5C;strokeColor=#006658;fillColor=#21C0A5;" parent="1" vertex="1">
          <mxGeometry x="1050" y="1920" width="120" height="60" as="geometry" />
        </mxCell>
        <mxCell id="MgCIcN8HCtVji7_G_k5s-92" value="loongker" style="rounded=1;whiteSpace=wrap;html=1;fontColor=#5C5C5C;strokeColor=#006658;fillColor=#21C0A5;" parent="1" vertex="1">
          <mxGeometry x="1050" y="1650" width="120" height="60" as="geometry" />
        </mxCell>
        <mxCell id="MgCIcN8HCtVji7_G_k5s-93" value="普通文件" style="rounded=1;whiteSpace=wrap;html=1;fontColor=#5C5C5C;strokeColor=#006658;fillColor=#21C0A5;" parent="1" vertex="1">
          <mxGeometry x="440" y="2265" width="330" height="60" as="geometry" />
        </mxCell>
        <mxCell id="MgCIcN8HCtVji7_G_k5s-94" value="镜像文件" style="rounded=1;whiteSpace=wrap;html=1;fontColor=#5C5C5C;strokeColor=#006658;fillColor=#21C0A5;" parent="1" vertex="1">
          <mxGeometry x="440" y="2145" width="320" height="70" as="geometry" />
        </mxCell>
        <mxCell id="MgCIcN8HCtVji7_G_k5s-95" value="" style="endArrow=classic;html=1;rounded=1;fontColor=#5C5C5C;strokeColor=#006658;fillColor=#21C0A5;curved=1;" parent="1" source="MgCIcN8HCtVji7_G_k5s-94" edge="1">
          <mxGeometry width="50" height="50" relative="1" as="geometry">
            <mxPoint x="975" y="2200" as="sourcePoint" />
            <mxPoint x="1015" y="2070" as="targetPoint" />
          </mxGeometry>
        </mxCell>
        <mxCell id="MgCIcN8HCtVji7_G_k5s-96" value="" style="endArrow=classic;html=1;rounded=1;fontColor=#5C5C5C;strokeColor=#006658;fillColor=#21C0A5;curved=1;entryX=0;entryY=0.5;entryDx=0;entryDy=0;" parent="1" source="MgCIcN8HCtVji7_G_k5s-93" target="MgCIcN8HCtVji7_G_k5s-97" edge="1">
          <mxGeometry width="50" height="50" relative="1" as="geometry">
            <mxPoint x="985" y="2350" as="sourcePoint" />
            <mxPoint x="965" y="2450" as="targetPoint" />
          </mxGeometry>
        </mxCell>
        <mxCell id="MgCIcN8HCtVji7_G_k5s-97" value="os" style="rounded=1;whiteSpace=wrap;html=1;fontColor=#5C5C5C;strokeColor=#006658;fillColor=#21C0A5;" parent="1" vertex="1">
          <mxGeometry x="1015" y="2350" width="120" height="60" as="geometry" />
        </mxCell>
        <mxCell id="MgCIcN8HCtVji7_G_k5s-98" value="loongker" style="rounded=1;whiteSpace=wrap;html=1;fontColor=#5C5C5C;strokeColor=#006658;fillColor=#21C0A5;" parent="1" vertex="1">
          <mxGeometry x="1015" y="2040" width="120" height="60" as="geometry" />
        </mxCell>
        <mxCell id="MgCIcN8HCtVji7_G_k5s-100" value="运行" style="text;html=1;align=center;verticalAlign=middle;resizable=0;points=[];autosize=1;strokeColor=none;fillColor=none;fontColor=#5C5C5C;rounded=1;" parent="1" vertex="1">
          <mxGeometry x="300" y="2200" width="40" height="20" as="geometry" />
        </mxCell>
        <mxCell id="MgCIcN8HCtVji7_G_k5s-101" value="lmg" style="rounded=1;whiteSpace=wrap;html=1;strokeColor=#003366;fillColor=#D5E8D4;" parent="1" vertex="1">
          <mxGeometry x="220" y="430" width="130" height="75" as="geometry" />
        </mxCell>
        <mxCell id="MgCIcN8HCtVji7_G_k5s-102" value="lmgbuild" style="rounded=1;whiteSpace=wrap;html=1;strokeColor=#003366;fillColor=#D5E8D4;" parent="1" vertex="1">
          <mxGeometry x="220" y="530" width="130" height="75" as="geometry" />
        </mxCell>
        <mxCell id="MgCIcN8HCtVji7_G_k5s-103" value="lmgrun" style="rounded=1;whiteSpace=wrap;html=1;strokeColor=#003366;fillColor=#D5E8D4;" parent="1" vertex="1">
          <mxGeometry x="560" y="530" width="130" height="75" as="geometry" />
        </mxCell>
        <mxCell id="MgCIcN8HCtVji7_G_k5s-104" value="lpkg" style="rounded=1;whiteSpace=wrap;html=1;strokeColor=#003366;fillColor=#D5E8D4;" parent="1" vertex="1">
          <mxGeometry x="390" y="530" width="130" height="75" as="geometry" />
        </mxCell>
        <mxCell id="MgCIcN8HCtVji7_G_k5s-105" value="lmginstaller" style="rounded=1;whiteSpace=wrap;html=1;strokeColor=#003366;fillColor=#D5E8D4;" parent="1" vertex="1">
          <mxGeometry x="560" y="430" width="130" height="75" as="geometry" />
        </mxCell>
        <mxCell id="MgCIcN8HCtVji7_G_k5s-106" value="LCF" style="text;html=1;strokeColor=none;fillColor=none;align=center;verticalAlign=middle;whiteSpace=wrap;rounded=1;fontColor=#5C5C5C;" parent="1" vertex="1">
          <mxGeometry x="423.5" y="610" width="60" height="10" as="geometry" />
        </mxCell>
        <mxCell id="MgCIcN8HCtVji7_G_k5s-111" value="lmginstaller" style="rounded=1;whiteSpace=wrap;html=1;strokeColor=#003366;fillColor=#009999;" parent="1" vertex="1">
          <mxGeometry x="120" y="2510" width="130" height="350" as="geometry" />
        </mxCell>
        <mxCell id="MgCIcN8HCtVji7_G_k5s-112" value="" style="shape=flexArrow;endArrow=classic;html=1;rounded=1;fontColor=#5C5C5C;strokeColor=#000000;fillColor=#FFFFFF;curved=1;" parent="1" edge="1">
          <mxGeometry width="50" height="50" relative="1" as="geometry">
            <mxPoint x="293.5" y="2680" as="sourcePoint" />
            <mxPoint x="423.5" y="2680" as="targetPoint" />
          </mxGeometry>
        </mxCell>
        <mxCell id="MgCIcN8HCtVji7_G_k5s-113" value="lpkg" style="rounded=1;whiteSpace=wrap;html=1;strokeColor=#003366;fillColor=#009999;" parent="1" vertex="1">
          <mxGeometry x="475" y="2600" width="120" height="60" as="geometry" />
        </mxCell>
        <mxCell id="MgCIcN8HCtVji7_G_k5s-114" value="lmgrun" style="rounded=1;whiteSpace=wrap;html=1;strokeColor=#003366;fillColor=#009999;" parent="1" vertex="1">
          <mxGeometry x="475" y="2700" width="120" height="60" as="geometry" />
        </mxCell>
        <mxCell id="MgCIcN8HCtVji7_G_k5s-115" value="lmgbuild" style="rounded=1;whiteSpace=wrap;html=1;strokeColor=#003366;fillColor=#009999;" parent="1" vertex="1">
          <mxGeometry x="475" y="2500" width="120" height="60" as="geometry" />
        </mxCell>
        <mxCell id="MgCIcN8HCtVji7_G_k5s-116" value="loongker" style="rounded=1;whiteSpace=wrap;html=1;strokeColor=#003366;fillColor=#009999;" parent="1" vertex="1">
          <mxGeometry x="475" y="2800" width="120" height="60" as="geometry" />
        </mxCell>
        <mxCell id="MgCIcN8HCtVji7_G_k5s-117" value="部署" style="text;html=1;align=center;verticalAlign=middle;resizable=0;points=[];autosize=1;strokeColor=none;fillColor=none;fontColor=#5C5C5C;" parent="1" vertex="1">
          <mxGeometry x="340" y="2650" width="40" height="20" as="geometry" />
        </mxCell>
        <mxCell id="MgCIcN8HCtVji7_G_k5s-125" style="edgeStyle=orthogonalEdgeStyle;curved=1;rounded=1;orthogonalLoop=1;jettySize=auto;html=1;exitX=0.5;exitY=0;exitDx=0;exitDy=0;entryX=0.5;entryY=1;entryDx=0;entryDy=0;fontColor=#5C5C5C;strokeColor=#000000;fillColor=#FFFFFF;" parent="1" source="MgCIcN8HCtVji7_G_k5s-118" target="MgCIcN8HCtVji7_G_k5s-120" edge="1">
          <mxGeometry relative="1" as="geometry" />
        </mxCell>
        <mxCell id="MgCIcN8HCtVji7_G_k5s-126" style="edgeStyle=orthogonalEdgeStyle;curved=1;rounded=1;orthogonalLoop=1;jettySize=auto;html=1;exitX=0.5;exitY=0;exitDx=0;exitDy=0;entryX=0.5;entryY=1;entryDx=0;entryDy=0;fontColor=#5C5C5C;strokeColor=#000000;fillColor=#FFFFFF;" parent="1" source="MgCIcN8HCtVji7_G_k5s-118" target="MgCIcN8HCtVji7_G_k5s-121" edge="1">
          <mxGeometry relative="1" as="geometry" />
        </mxCell>
        <mxCell id="MgCIcN8HCtVji7_G_k5s-127" style="edgeStyle=orthogonalEdgeStyle;curved=1;rounded=1;orthogonalLoop=1;jettySize=auto;html=1;exitX=0.5;exitY=0;exitDx=0;exitDy=0;entryX=0.5;entryY=1;entryDx=0;entryDy=0;fontColor=#5C5C5C;strokeColor=#000000;fillColor=#FFFFFF;" parent="1" source="MgCIcN8HCtVji7_G_k5s-118" target="MgCIcN8HCtVji7_G_k5s-119" edge="1">
          <mxGeometry relative="1" as="geometry" />
        </mxCell>
        <mxCell id="MgCIcN8HCtVji7_G_k5s-118" value="&lt;span style=&quot;color: rgb(0, 0, 0);&quot;&gt;loongker&lt;/span&gt;" style="rounded=1;whiteSpace=wrap;html=1;fontColor=#5C5C5C;strokeColor=#006658;fillColor=#9AC7BF;" parent="1" vertex="1">
          <mxGeometry x="306.5" y="3170" width="120" height="60" as="geometry" />
        </mxCell>
        <mxCell id="MgCIcN8HCtVji7_G_k5s-119" value="lmgbuild" style="rounded=1;whiteSpace=wrap;html=1;strokeColor=#003366;fillColor=#009999;" parent="1" vertex="1">
          <mxGeometry x="520" y="2990" width="120" height="60" as="geometry" />
        </mxCell>
        <mxCell id="MgCIcN8HCtVji7_G_k5s-120" value="lpkg" style="rounded=1;whiteSpace=wrap;html=1;strokeColor=#003366;fillColor=#009999;" parent="1" vertex="1">
          <mxGeometry x="100" y="2990" width="120" height="60" as="geometry" />
        </mxCell>
        <mxCell id="MgCIcN8HCtVji7_G_k5s-121" value="lmgrun" style="rounded=1;whiteSpace=wrap;html=1;strokeColor=#003366;fillColor=#009999;" parent="1" vertex="1">
          <mxGeometry x="306.5" y="2990" width="120" height="60" as="geometry" />
        </mxCell>
        <mxCell id="tzlG480XD32pi5aD75Bq-1" value="lmgbuild" style="rounded=1;whiteSpace=wrap;html=1;strokeColor=#003366;fillColor=#009999;" vertex="1" parent="1">
          <mxGeometry x="111" y="3583" width="154" height="290" as="geometry" />
        </mxCell>
        <mxCell id="tzlG480XD32pi5aD75Bq-2" value="" style="shape=flexArrow;endArrow=classic;html=1;rounded=1;fontColor=#5C5C5C;strokeColor=#000000;fillColor=#FFFFFF;curved=1;" edge="1" parent="1">
          <mxGeometry width="50" height="50" relative="1" as="geometry">
            <mxPoint x="310" y="3730" as="sourcePoint" />
            <mxPoint x="440" y="3730" as="targetPoint" />
          </mxGeometry>
        </mxCell>
        <mxCell id="tzlG480XD32pi5aD75Bq-27" style="edgeStyle=orthogonalEdgeStyle;rounded=0;orthogonalLoop=1;jettySize=auto;html=1;exitX=0.5;exitY=0;exitDx=0;exitDy=0;entryX=0.5;entryY=1;entryDx=0;entryDy=0;" edge="1" parent="1" source="tzlG480XD32pi5aD75Bq-5" target="tzlG480XD32pi5aD75Bq-10">
          <mxGeometry relative="1" as="geometry" />
        </mxCell>
        <mxCell id="tzlG480XD32pi5aD75Bq-28" style="edgeStyle=orthogonalEdgeStyle;rounded=0;orthogonalLoop=1;jettySize=auto;html=1;exitX=0.5;exitY=1;exitDx=0;exitDy=0;" edge="1" parent="1" source="tzlG480XD32pi5aD75Bq-5" target="tzlG480XD32pi5aD75Bq-11">
          <mxGeometry relative="1" as="geometry" />
        </mxCell>
        <mxCell id="tzlG480XD32pi5aD75Bq-5" value="deb/rpm/tar&amp;nbsp; package" style="rounded=1;whiteSpace=wrap;html=1;strokeColor=#003366;fillColor=#009999;" vertex="1" parent="1">
          <mxGeometry x="453" y="3613" width="390" height="210" as="geometry" />
        </mxCell>
        <mxCell id="tzlG480XD32pi5aD75Bq-6" value="" style="shape=flexArrow;endArrow=classic;html=1;rounded=1;fontColor=#5C5C5C;strokeColor=#000000;fillColor=#FFFFFF;curved=1;" edge="1" parent="1">
          <mxGeometry width="50" height="50" relative="1" as="geometry">
            <mxPoint x="891" y="3727.5" as="sourcePoint" />
            <mxPoint x="1021" y="3727.5" as="targetPoint" />
          </mxGeometry>
        </mxCell>
        <mxCell id="tzlG480XD32pi5aD75Bq-7" value="lmg package" style="rounded=1;whiteSpace=wrap;html=1;strokeColor=#003366;fillColor=#009999;" vertex="1" parent="1">
          <mxGeometry x="1034" y="3616" width="390" height="210" as="geometry" />
        </mxCell>
        <mxCell id="tzlG480XD32pi5aD75Bq-8" value="镜像文件" style="rounded=1;whiteSpace=wrap;html=1;fontColor=#5C5C5C;strokeColor=#006658;fillColor=#21C0A5;" vertex="1" parent="1">
          <mxGeometry x="1062" y="3628" width="320" height="70" as="geometry" />
        </mxCell>
        <mxCell id="tzlG480XD32pi5aD75Bq-9" value="普通文件" style="rounded=1;whiteSpace=wrap;html=1;fontColor=#5C5C5C;strokeColor=#006658;fillColor=#21C0A5;" vertex="1" parent="1">
          <mxGeometry x="1064" y="3736" width="330" height="60" as="geometry" />
        </mxCell>
        <mxCell id="tzlG480XD32pi5aD75Bq-10" value="loongker" style="rounded=1;whiteSpace=wrap;html=1;fontColor=#5C5C5C;strokeColor=#006658;fillColor=#21C0A5;" vertex="1" parent="1">
          <mxGeometry x="588" y="3404" width="120" height="60" as="geometry" />
        </mxCell>
        <mxCell id="tzlG480XD32pi5aD75Bq-11" value="os" style="rounded=1;whiteSpace=wrap;html=1;fontColor=#5C5C5C;strokeColor=#006658;fillColor=#21C0A5;" vertex="1" parent="1">
          <mxGeometry x="588" y="3952" width="120" height="60" as="geometry" />
        </mxCell>
        <mxCell id="tzlG480XD32pi5aD75Bq-21" value="" style="endArrow=classic;html=1;rounded=0;entryX=0.5;entryY=0;entryDx=0;entryDy=0;exitX=1;exitY=0.5;exitDx=0;exitDy=0;" edge="1" parent="1" source="tzlG480XD32pi5aD75Bq-10" target="tzlG480XD32pi5aD75Bq-8">
          <mxGeometry width="50" height="50" relative="1" as="geometry">
            <mxPoint x="736" y="3220" as="sourcePoint" />
            <mxPoint x="1028" y="3146" as="targetPoint" />
          </mxGeometry>
        </mxCell>
        <mxCell id="tzlG480XD32pi5aD75Bq-22" value="" style="endArrow=classic;html=1;rounded=0;" edge="1" parent="1">
          <mxGeometry width="50" height="50" relative="1" as="geometry">
            <mxPoint y="3310" as="sourcePoint" />
            <mxPoint x="50" y="3260" as="targetPoint" />
          </mxGeometry>
        </mxCell>
        <mxCell id="tzlG480XD32pi5aD75Bq-25" value="" style="endArrow=classic;html=1;rounded=0;exitX=1;exitY=0.5;exitDx=0;exitDy=0;entryX=0.5;entryY=1;entryDx=0;entryDy=0;" edge="1" parent="1" source="tzlG480XD32pi5aD75Bq-11" target="tzlG480XD32pi5aD75Bq-9">
          <mxGeometry width="50" height="50" relative="1" as="geometry">
            <mxPoint x="986" y="4034" as="sourcePoint" />
            <mxPoint x="1036" y="3984" as="targetPoint" />
          </mxGeometry>
        </mxCell>
        <mxCell id="tzlG480XD32pi5aD75Bq-42" style="edgeStyle=orthogonalEdgeStyle;rounded=1;orthogonalLoop=1;jettySize=auto;html=1;exitX=0;exitY=0.5;exitDx=0;exitDy=0;startArrow=none;startFill=0;fillColor=#f8cecc;strokeColor=#000000;" edge="1" parent="1" source="tzlG480XD32pi5aD75Bq-30">
          <mxGeometry relative="1" as="geometry">
            <mxPoint x="271.995625" y="4936.01171875" as="targetPoint" />
          </mxGeometry>
        </mxCell>
        <mxCell id="tzlG480XD32pi5aD75Bq-30" value="&lt;font color=&quot;#cc0000&quot; style=&quot;font-size: 13px;&quot;&gt;Read Layer&lt;/font&gt;" style="rounded=0;whiteSpace=wrap;html=1;strokeColor=#CC0066;strokeWidth=3;" vertex="1" parent="1">
          <mxGeometry x="334.73" y="4830" width="120" height="60" as="geometry" />
        </mxCell>
        <mxCell id="tzlG480XD32pi5aD75Bq-38" style="edgeStyle=orthogonalEdgeStyle;rounded=1;orthogonalLoop=1;jettySize=auto;html=1;exitX=0;exitY=0.5;exitDx=0;exitDy=0;" edge="1" parent="1" source="tzlG480XD32pi5aD75Bq-35" target="tzlG480XD32pi5aD75Bq-30">
          <mxGeometry relative="1" as="geometry" />
        </mxCell>
        <mxCell id="tzlG480XD32pi5aD75Bq-35" value="&lt;font style=&quot;font-size: 13px;&quot; color=&quot;#cc0000&quot;&gt;Read Layer&lt;/font&gt;" style="rounded=0;whiteSpace=wrap;html=1;strokeColor=#CC0066;strokeWidth=3;" vertex="1" parent="1">
          <mxGeometry x="479.73" y="4741" width="120" height="60" as="geometry" />
        </mxCell>
        <mxCell id="tzlG480XD32pi5aD75Bq-41" style="rounded=1;orthogonalLoop=1;jettySize=auto;html=1;exitX=0;exitY=0.5;exitDx=0;exitDy=0;edgeStyle=orthogonalEdgeStyle;" edge="1" parent="1" source="tzlG480XD32pi5aD75Bq-36" target="tzlG480XD32pi5aD75Bq-37">
          <mxGeometry relative="1" as="geometry" />
        </mxCell>
        <mxCell id="tzlG480XD32pi5aD75Bq-36" value="&lt;font style=&quot;font-size: 13px;&quot; color=&quot;#cc0000&quot;&gt;Read Layer&lt;/font&gt;" style="rounded=0;whiteSpace=wrap;html=1;strokeColor=#CC0066;strokeWidth=3;" vertex="1" parent="1">
          <mxGeometry x="781.23" y="4587" width="120" height="60" as="geometry" />
        </mxCell>
        <mxCell id="tzlG480XD32pi5aD75Bq-40" style="edgeStyle=orthogonalEdgeStyle;rounded=1;orthogonalLoop=1;jettySize=auto;html=1;exitX=0;exitY=0.5;exitDx=0;exitDy=0;" edge="1" parent="1" source="tzlG480XD32pi5aD75Bq-37" target="tzlG480XD32pi5aD75Bq-35">
          <mxGeometry relative="1" as="geometry" />
        </mxCell>
        <mxCell id="tzlG480XD32pi5aD75Bq-37" value="&lt;font color=&quot;#cc0000&quot; style=&quot;font-size: 13px;&quot;&gt;Read Layer&lt;/font&gt;" style="rounded=0;whiteSpace=wrap;html=1;strokeColor=#CC0066;strokeWidth=3;" vertex="1" parent="1">
          <mxGeometry x="626.23" y="4663" width="120" height="60" as="geometry" />
        </mxCell>
        <mxCell id="tzlG480XD32pi5aD75Bq-46" style="edgeStyle=orthogonalEdgeStyle;rounded=1;orthogonalLoop=1;jettySize=auto;html=1;exitX=0.5;exitY=1;exitDx=0;exitDy=0;startArrow=none;startFill=0;" edge="1" parent="1" source="tzlG480XD32pi5aD75Bq-44" target="tzlG480XD32pi5aD75Bq-36">
          <mxGeometry relative="1" as="geometry" />
        </mxCell>
        <mxCell id="tzlG480XD32pi5aD75Bq-44" value="&lt;font color=&quot;#ff8000&quot; style=&quot;font-size: 14px;&quot;&gt;App layer&lt;/font&gt;" style="rounded=0;whiteSpace=wrap;html=1;strokeWidth=3;strokeColor=#FF9933;" vertex="1" parent="1">
          <mxGeometry x="781.23" y="4385" width="120" height="60" as="geometry" />
        </mxCell>
        <mxCell id="tzlG480XD32pi5aD75Bq-50" value="&lt;font color=&quot;#cc0066&quot; style=&quot;font-size: 13px;&quot;&gt;Baseruntime Layer&lt;/font&gt;" style="text;html=1;strokeColor=none;fillColor=none;align=center;verticalAlign=middle;whiteSpace=wrap;rounded=0;dashed=1;" vertex="1" parent="1">
          <mxGeometry x="62" y="4591" width="156" height="31" as="geometry" />
        </mxCell>
        <mxCell id="tzlG480XD32pi5aD75Bq-52" value="&lt;font style=&quot;font-size: 13px;&quot; color=&quot;#ff8000&quot;&gt;Applications Layer&lt;/font&gt;" style="text;html=1;strokeColor=none;fillColor=none;align=center;verticalAlign=middle;whiteSpace=wrap;rounded=0;dashed=1;" vertex="1" parent="1">
          <mxGeometry x="71" y="4370" width="125" height="15" as="geometry" />
        </mxCell>
        <mxCell id="tzlG480XD32pi5aD75Bq-58" value="" style="rounded=1;whiteSpace=wrap;html=1;fontSize=13;fontColor=#CC0000;strokeColor=#FF0000;strokeWidth=3;dashed=1;dashPattern=1 1;" vertex="1" parent="1">
          <mxGeometry x="62" y="4173" width="957" height="99" as="geometry" />
        </mxCell>
        <mxCell id="tzlG480XD32pi5aD75Bq-64" style="edgeStyle=orthogonalEdgeStyle;rounded=1;orthogonalLoop=1;jettySize=auto;html=1;exitX=0.5;exitY=1;exitDx=0;exitDy=0;entryX=0.5;entryY=0;entryDx=0;entryDy=0;dashed=1;dashPattern=1 1;fontSize=13;fontColor=#CC0000;startArrow=none;startFill=0;strokeColor=#000000;" edge="1" parent="1" source="tzlG480XD32pi5aD75Bq-63" target="tzlG480XD32pi5aD75Bq-44">
          <mxGeometry relative="1" as="geometry" />
        </mxCell>
        <mxCell id="tzlG480XD32pi5aD75Bq-63" value="Read-Write Layer" style="rounded=0;whiteSpace=wrap;html=1;fontSize=13;fontColor=#CC0000;strokeColor=#FF0000;strokeWidth=3;" vertex="1" parent="1">
          <mxGeometry x="781.23" y="4186" width="120" height="60" as="geometry" />
        </mxCell>
        <mxCell id="tzlG480XD32pi5aD75Bq-68" value="Read-write Layer" style="text;html=1;strokeColor=none;fillColor=none;align=center;verticalAlign=middle;whiteSpace=wrap;rounded=0;dashed=1;dashPattern=1 2;fontSize=13;fontColor=#CC0000;" vertex="1" parent="1">
          <mxGeometry x="65.5" y="4193" width="113" height="25" as="geometry" />
        </mxCell>
      </root>
    </mxGraphModel>
  </diagram>
</mxfile>
